<svg width="25" height="26" viewBox="0 0 25 26" fill="none" xmlns="http://www.w3.org/2000/svg">
<path d="M0.430664 25.3692L2.13959 19.1033C1.08583 17.2656 0.531571 15.184 0.53196 13.0656C0.53196 6.40486 5.92474 0.979004 12.5448 0.979004C15.76 0.979004 18.7727 2.24003 21.0508 4.51952C22.1704 5.64276 23.0575 6.97572 23.6613 8.44214C24.2652 9.90857 24.574 11.4797 24.57 13.0656C24.57 19.7269 19.1779 25.1528 12.5572 25.1528C10.5451 25.1528 8.57013 24.6429 6.81021 23.6754L0.430664 25.3692Z" fill="url(#paint0_linear_2923_7538)"/>
<path d="M0 25.8026L1.77233 19.3197C0.682688 17.4157 0.111054 15.2594 0.114388 13.0656C0.101295 6.14993 5.68357 0.533203 12.5448 0.533203C15.8738 0.533203 19.0001 1.83213 21.3547 4.2012C23.7093 6.57028 25 9.71595 25 13.0656C25 19.9688 19.4184 25.5863 12.5572 25.5863C10.4768 25.589 8.42979 25.063 6.60832 24.0579L0 25.8026ZM6.89981 21.8032L7.27949 22.0326C8.87226 22.9815 10.6915 23.4831 12.5455 23.4846C18.2415 23.4846 22.8873 18.8098 22.8873 13.0787C22.8873 10.3017 21.8116 7.67832 19.8622 5.7165C17.9114 3.75605 15.3039 2.66041 12.5441 2.66041C6.83503 2.66041 2.18922 7.33516 2.18922 13.0663C2.18922 15.0281 2.7336 16.9513 3.77205 18.6065L4.01254 19.0021L2.96169 22.8485L6.89843 21.8039L6.89981 21.8032Z" fill="url(#paint1_linear_2923_7538)"/>
<path fill-rule="evenodd" clip-rule="evenodd" d="M9.44325 7.81833C9.21585 7.296 8.96227 7.2836 8.74727 7.2836C8.55709 7.27051 8.3545 7.27051 8.1395 7.27051C7.93691 7.27051 7.59512 7.347 7.30433 7.66535C7.01285 7.98371 6.21558 8.7355 6.21558 10.277C6.21558 11.8178 7.32983 13.3083 7.48142 13.5115C7.63302 13.7155 9.63344 16.9763 12.7977 18.2373C15.4307 19.2813 15.9627 19.078 16.5326 19.0139C17.1017 18.9505 18.3676 18.2628 18.6336 17.5234C18.8865 16.7978 18.8865 16.1611 18.8107 16.0336C18.7349 15.9061 18.5192 15.8296 18.2153 15.6642C17.899 15.5113 16.3803 14.7478 16.0888 14.6451C15.798 14.5431 15.5954 14.4921 15.3928 14.7981C15.1902 15.1164 14.5955 15.8172 14.4053 16.0205C14.2283 16.2245 14.0388 16.25 13.7349 16.097C13.4179 15.9447 12.4187 15.6133 11.228 14.5431C10.3046 13.7155 9.68443 12.684 9.49424 12.378C9.31715 12.0596 9.46875 11.8943 9.63344 11.7413C9.77263 11.6014 9.95042 11.3719 10.102 11.1935C10.2536 11.015 10.3039 10.8751 10.4183 10.6711C10.5196 10.4679 10.4686 10.2763 10.3928 10.124C10.317 9.98343 9.72164 8.44264 9.44325 7.81833Z" fill="white"/>
<defs>
<linearGradient id="paint0_linear_2923_7538" x1="12.4979" y1="25.3678" x2="12.4979" y2="0.97418" gradientUnits="userSpaceOnUse">
<stop stop-color="#20B038"/>
<stop offset="1" stop-color="#60D66A"/>
</linearGradient>
<linearGradient id="paint1_linear_2923_7538" x1="12.4979" y1="25.8054" x2="12.4979" y2="0.536649" gradientUnits="userSpaceOnUse">
<stop stop-color="#F9F9F9"/>
<stop offset="1" stop-color="white"/>
</linearGradient>
</defs>
</svg>
