<svg width="123" height="32" fill="none" xmlns="http://www.w3.org/2000/svg"><path d="M41.648 26.14a1.32 1.32 0 0 1 1.328 1.31 1.32 1.32 0 0 1-1.308 1.33 1.32 1.32 0 0 1-1.328-1.31c0-.748.58-1.33 1.308-1.33Zm0 2.432c.622 0 1.12-.499 1.12-1.122 0-.624-.498-1.122-1.12-1.122-.623 0-1.122.498-1.122 1.122 0 .623.499 1.122 1.122 1.122Zm-.291-.354h-.187v-1.516h.581c.353 0 .478.145.478.415.02.229-.166.416-.374.437l.457.665h-.208l-.456-.665h-.27l-.021.665Zm0-.851h.249c.208 0 .436-.021.436-.27 0-.188-.187-.25-.332-.25h-.332v.52h-.021Zm-2.804 1.225-18.54-8.935V0l18.54 28.592ZM40.027 32l-20.014-8.457V32h20.014Z" fill="#5F5F5F"/><path d="M1.474 28.592 20.014 0v19.657l-18.54 8.935ZM0 32h20.014v-8.457L0 32Zm46.919-7.466h5.993c6.173 0 9.84-3.2 9.84-8.506 0-5.305-3.667-8.491-9.84-8.491h-5.993v16.997Zm3.792-14.047h2.2c4 0 6.008 1.981 6.008 5.541 0 3.56-2.007 5.541-6.007 5.541H50.71V10.487Zm19.617 6.677h7.21v-2.95h-7.21v-3.727h8.152v-2.95H66.522v16.997h12.221v-2.95h-8.415v-4.42Zm23.647 4.419h-7.322V7.537h-3.806v16.997h11.128v-2.95Zm13.031-14.046H91.768v2.95h5.702v14.047h3.82V10.487h5.716v-2.95Zm15.661 16.996h-3.972l-1.661-4.253h-6.907l-1.661 4.253h-3.709l7.1-17.066h3.834l6.976 17.066Zm-6.713-7.106-2.366-6.04-2.381 6.04h4.747Z" fill="#242424"/></svg>