<svg width="144" height="30" fill="none" xmlns="http://www.w3.org/2000/svg"><path d="M20.61 12.017a2.41 2.41 0 0 0-.262.01 8.443 8.443 0 0 1-.29.48c2.125 0 4.056.176 6.191.563l-.603.588c-1.927-.345-3.528-.483-5.568-.483-.297 0-.36 0-.43.003a7.638 7.638 0 0 1-.393.513 18.82 18.82 0 0 1 1.016-.018c1.678 0 3.246.126 4.948.402l-.603.59a29.13 29.13 0 0 0-4.298-.32c-.504 0-1.078.018-1.591.048-.116.135-.42.465-.511.567a22 22 0 0 1 2.32-.105c1.267 0 2.48.084 3.625.255l-.603.585a22.916 22.916 0 0 0-2.684-.162c-2.26 0-4.042.495-5.883 1.632 1.755 1.901 4.63 3.104 7.415 3.104h.262l-.974.951c-4.019-.762-8.248-2.547-11.82-4.991-3.436-2.343-4.64-3.036-7.32-4.233l-.019-.696 1.815.786.618-.495 5.924 2.742-.386.312-3.04-1.335-.3.237 1.58.89c1.333.75 2.348 1.087 3.287 1.087 2.052 0 3.893-1.47 5.081-4.053.894-.117 1.847-.17 2.994-.17 2.352 0 4.635.227 7.222.716l-.63.615c-1.609-.339-4.344-.615-6.09-.615ZM14.85 29.1C7.143 29.1.891 22.785.891 15 .891 7.215 7.143.9 14.851.9c7.708 0 13.96 6.315 13.96 14.1 0 7.785-6.252 14.1-13.96 14.1Zm0-29.1C6.638 0 0 6.705 0 15s6.638 15 14.851 15c8.213 0 14.851-6.705 14.851-15S23.064 0 14.851 0Zm25.864 19.675h7.379v3.383h-11.35V6.262h3.97v13.413Zm16.303-8.71h3.702v12.093h-3.481v-1.392c-.515.936-1.57 1.752-3.506 1.752-3.163 0-4.805-1.392-4.805-5.375v-7.078h3.702v6.91c0 1.608.71 2.328 2.206 2.328 1.348 0 2.182-.72 2.182-2.328v-6.91Zm6.546-.456c0-2.927 1.888-4.487 4.854-4.487.956 0 1.569.144 1.569.144v2.927s-.515-.047-.956-.047c-1.153 0-1.766.383-1.766 1.44v.479h2.722v2.951h-2.722v9.142h-3.701v-9.142h-1.864v-2.951h1.864v-.456Zm12.944.456h2.82v2.951h-2.82v4.703c0 1.296.686 1.632 1.765 1.632.441 0 1.054-.072 1.054-.072v2.903s-.858.192-1.765.192c-2.966 0-4.756-1.32-4.756-4.247v-5.11h-1.863v-2.952h1.863V7.438h3.702v3.527Zm11.015-.36c3.138 0 4.781 1.392 4.781 5.375v7.078h-3.702v-6.91c0-1.608-.711-2.328-2.255-2.328-1.398 0-2.231.72-2.231 2.328v6.91h-3.702V6.286h3.726v5.855c.638-.888 1.643-1.536 3.383-1.536Zm14.22 7.75c0 1.32-1.275 2.304-3.237 2.304-.956 0-1.52-.432-1.52-1.248 0-.624.393-1.152 1.643-1.32l2.133-.288c.368-.048.76-.12.981-.192v.744Zm-2.06-7.75c-3.653 0-5.418 1.368-5.565 3.935h3.604c.049-.672.441-1.176 1.961-1.176 1.349 0 1.986.432 1.986 1.08 0 .576-.368.792-1.275.888l-2.353.24c-3.188.336-4.634 1.631-4.634 3.983 0 2.183 1.373 3.863 4.29 3.863 1.986 0 3.163-.624 4.193-1.872v1.512h3.383v-7.942c0-3.335-1.986-4.51-5.59-4.51Zm14.15 0c3.212 0 4.854 1.392 4.854 5.375v7.078h-3.702v-6.91c0-1.608-.711-2.328-2.255-2.328-1.398 0-2.231.72-2.231 2.328v6.91h-3.702V10.965h3.481v1.392c.515-.936 1.569-1.752 3.555-1.752Zm12.663 4.87c3.138.409 4.707 1.369 4.707 3.888 0 2.543-1.838 4.055-5.736 4.055-4.242 0-5.737-1.655-5.811-4.08h3.653c.098.889.736 1.32 2.158 1.32 1.446 0 2.034-.335 2.034-1.007 0-.624-.49-.912-1.765-1.08l-1.299-.168c-2.721-.36-4.29-1.391-4.29-3.79 0-2.304 1.74-4.008 5.393-4.008 3.383 0 5.198 1.32 5.369 3.935h-3.604c-.122-.696-.515-1.128-1.765-1.128-1.226 0-1.691.408-1.691.936s.294.816 1.348.96l1.299.168Zm13.974 2.88c0 1.32-1.275 2.304-3.236 2.304-.956 0-1.52-.432-1.52-1.248 0-.624.392-1.152 1.643-1.32l2.133-.288c.367-.047.76-.12.98-.192v.744Zm-2.059-7.75c-3.653 0-5.418 1.368-5.565 3.935h3.604c.049-.672.441-1.175 1.961-1.175 1.348 0 1.986.431 1.986 1.08 0 .575-.368.791-1.275.887l-2.354.24c-3.187.336-4.633 1.631-4.633 3.983 0 2.183 1.373 3.863 4.29 3.863 1.986 0 3.163-.624 4.192-1.872v1.512H144v-7.942c0-3.335-1.986-4.51-5.59-4.51Z" fill="#242424"/></svg>