<svg width="115" height="30" fill="none" xmlns="http://www.w3.org/2000/svg"><g clip-path="url(#a)" fill="#242424"><path d="M110.986 12.582V7.65h-5.1v4.932h-2.799V.834h2.799v4.68h5.1V.835h2.82v11.748h-2.82ZM50.66.835V8.19c0 .812.123 1.515.366 2.088a3.57 3.57 0 0 0 1.042 1.401 4.348 4.348 0 0 0 1.629.803 8.28 8.28 0 0 0 2.132.256c.779 0 1.49-.086 2.112-.256.612-.167 1.134-.435 1.553-.799.42-.363.748-.834.977-1.402.23-.571.348-1.274.348-2.091V.835h-2.62V8.11c0 .741-.19 1.34-.564 1.779-.382.447-.99.674-1.806.674-.803 0-1.406-.226-1.794-.673-.382-.438-.576-1.037-.576-1.78V.835h-2.8Zm-8.075 11.749V3.028h-3.292V.835h9.403v1.051c0 .63-.529 1.142-1.178 1.142h-2.133v9.556h-2.8ZM87.576.833h2.8v11.749h-2.8V.833Zm-9.324 6.271.096.116 3.576 4.469a2.39 2.39 0 0 0 1.883.896h2.23l-5.123-6.32-.075-.092.075-.094L85.126.83h-2.913L78.35 5.893l-.097.122-.002-.211V.83h-2.799v11.748h2.8V7.103Zm-6.45 5.476c-.83 0-1.612-.427-2.04-1.114l-2.177-3.488h-1.381v4.602h-2.798V.834h4.988c1.282 0 2.285.326 2.983.965.697.638 1.049 1.513 1.049 2.598 0 .552-.151 1.11-.45 1.66-.295.541-.818.984-1.554 1.316l-.163.073 3.4 5.134h-1.857Zm-5.599-6.37h1.633c.588 0 1.035-.156 1.331-.463.291-.304.44-.7.44-1.177 0-.486-.145-.888-.429-1.193-.289-.31-.74-.466-1.342-.466h-1.632v3.3Zm26.472 5.873V9.831c.89.397 2.038.795 3.227.795 1.365 0 2.059-.455 2.059-1.325 0-1.022-.931-1.135-2.792-1.911-1.267-.549-2.475-1.4-2.475-3.37 0-2.29 1.802-3.367 4.296-3.367 1.327 0 2.455.302 3.089.529v2.195c-.634-.284-1.762-.624-2.89-.624-1.228 0-1.802.435-1.802 1.192 0 .795.694 1.041 1.94 1.496 1.604.776 3.465 1.116 3.465 3.765 0 2.29-1.882 3.54-4.396 3.54-1.544 0-2.77-.265-3.721-.663Zm4.374 17.102V17.437h7.586v1.065c0 .622-.522 1.128-1.162 1.128h-3.625v2.526h4.069v1.962h-4.069v2.874h4.787v2.193h-7.586Zm-27.679-.001V17.436h1.36c.794 0 1.44.626 1.44 1.395v8.237h4.468v2.116H69.37Zm-17.33-.002v-11.74h2.8l-.002 11.74H52.04Zm13.763 0a2.413 2.413 0 0 1-2.04-1.115l-2.177-3.487h-1.381v4.602h-2.799V17.436h4.99c1.281 0 2.284.324 2.982.964.696.639 1.049 1.513 1.049 2.598 0 .552-.151 1.11-.45 1.661-.296.54-.818.983-1.553 1.315l-.164.074 3.4 5.134h-1.857Zm-5.598-6.37h1.631c.589 0 1.036-.156 1.332-.464.291-.304.44-.7.44-1.176 0-.487-.145-.888-.43-1.193-.288-.31-.74-.466-1.342-.466h-1.631v3.3Zm-14.329-5.377h-3.215l-4.568 11.749h2.016c.512 0 .965-.318 1.125-.788l.47-1.378h4.912l.72 2.166h3.032l-4.492-11.75Zm-3.459 7.468 1.099-2.969c.244-.669.49-1.373.652-1.892h.04c.144.538.388 1.206.632 1.892l1.06 2.97h-3.483Zm64.467 3.784v-2.253c.891.398 2.039.795 3.227.795 1.366 0 2.059-.454 2.059-1.325 0-1.021-.931-1.135-2.791-1.91-1.268-.55-2.475-1.401-2.475-3.37 0-2.29 1.801-3.368 4.295-3.368 1.327 0 2.456.302 3.09.53v2.195c-.634-.284-1.763-.625-2.891-.625-1.228 0-1.802.436-1.802 1.192 0 .795.694 1.042 1.94 1.496 1.604.776 3.465 1.116 3.465 3.766 0 2.29-1.881 3.539-4.395 3.539-1.545 0-2.772-.265-3.722-.662ZM83.802 17.438h1.734c.825 0 1.59.413 2.025 1.091l3.379 5.263c.382.585.826 1.357 1.086 1.904h.061c-.04-.527-.06-1.263-.06-1.79v-6.468h2.453v11.748h-3.07L87.3 22.83a25.295 25.295 0 0 1-1.065-1.81h-.04c.02.509.06 1.113.06 1.678v6.488h-2.453V17.438Zm-5.363.004h2.799v11.74h-2.8v-11.74ZM17.087.083c7.781.785 13.848 7.16 13.85 14.912.004 8.284-6.919 15.002-15.463 15.005C6.931 30.003.003 23.29 0 15.005-.002 6.721 6.921.003 15.464 0c.547 0 1.088.029 1.623.083Zm.798 28.87c7.948-1.295 13.307-8.59 11.971-16.295-1.11-6.413-6.502-11.086-12.86-11.733a15.15 15.15 0 0 0-3.947.122 14.81 14.81 0 0 0-4.409 1.45c7.005 2.304 10.771 5.806 11.032 9.395.128 2.216-.933 3.818-2.33 5.124l9.905-.671c.281-.019.369.297.03.391l-23.625 6.57c2.405 3.211 6.14 5.348 10.287 5.768 1.284.131 2.61.098 3.946-.121Zm-6.5-13.624c1.296-4.72-.182-9.668-3.717-12.289C2.852 5.995.076 11.554 1.079 17.345a13.815 13.815 0 0 0 2.054 5.215c3.765-1.017 7.075-2.94 8.253-7.231Z"/></g><defs><clipPath id="a"><path fill="#fff" d="M0 0h115v30H0z"/></clipPath></defs></svg>