<svg width="25" height="26" fill="none" xmlns="http://www.w3.org/2000/svg"><path d="m.43 25.37 1.71-6.267a12.133 12.133 0 0 1-1.608-6.037C.532 6.405 5.925.979 12.545.979c3.215 0 6.228 1.261 8.506 3.54a12.062 12.062 0 0 1 3.519 8.547c0 6.66-5.392 12.087-12.013 12.087-2.012 0-3.987-.51-5.747-1.478L.43 25.37Z" fill="url(#a)"/><path d="m0 25.803 1.772-6.483a12.553 12.553 0 0 1-1.658-6.254C.101 6.15 5.684.533 12.544.533a12.33 12.33 0 0 1 8.81 3.668A12.484 12.484 0 0 1 25 13.066c0 6.903-5.582 12.52-12.443 12.52a12.28 12.28 0 0 1-5.949-1.528L0 25.803Zm6.9-4 .38.23a10.305 10.305 0 0 0 5.266 1.452c5.695 0 10.341-4.675 10.341-10.406 0-2.777-1.075-5.4-3.025-7.363a10.283 10.283 0 0 0-7.318-3.056C6.835 2.66 2.19 7.335 2.19 13.066c0 1.962.545 3.885 1.583 5.54l.24.396-1.05 3.847 3.936-1.045H6.9Z" fill="url(#b)"/><path fill-rule="evenodd" clip-rule="evenodd" d="M9.443 7.818c-.227-.522-.48-.534-.696-.534-.19-.013-.393-.013-.607-.013-.203 0-.545.076-.836.394-.291.319-1.088 1.07-1.088 2.612 0 1.54 1.114 3.031 1.265 3.235.152.204 2.152 3.464 5.317 4.725 2.633 1.044 3.165.841 3.735.777.569-.063 1.835-.751 2.1-1.49.254-.726.254-1.363.178-1.49-.076-.128-.292-.204-.596-.37-.316-.153-1.835-.916-2.126-1.019-.291-.102-.494-.153-.696.153-.203.318-.798 1.02-.988 1.222-.177.204-.366.23-.67.077-.317-.152-1.316-.484-2.507-1.554-.923-.827-1.544-1.859-1.734-2.165-.177-.318-.025-.484.14-.637.139-.14.316-.37.468-.547.152-.179.202-.319.316-.523.102-.203.05-.395-.025-.547-.076-.14-.671-1.681-.95-2.306Z" fill="#fff"/><defs><linearGradient id="a" x1="12.498" y1="25.368" x2="12.498" y2=".974" gradientUnits="userSpaceOnUse"><stop stop-color="#20B038"/><stop offset="1" stop-color="#60D66A"/></linearGradient><linearGradient id="b" x1="12.498" y1="25.805" x2="12.498" y2=".537" gradientUnits="userSpaceOnUse"><stop stop-color="#F9F9F9"/><stop offset="1" stop-color="#fff"/></linearGradient></defs></svg>