<svg width="123" height="32" viewBox="0 0 123 32" fill="none" xmlns="http://www.w3.org/2000/svg">
<path d="M41.6476 26.1406C42.3742 26.1406 42.9763 26.7224 42.9763 27.4497C42.9763 28.177 42.395 28.7796 41.6683 28.7796C40.9417 28.7796 40.3396 28.1978 40.3396 27.4705C40.3396 26.7224 40.9209 26.1406 41.6476 26.1406ZM41.6476 28.5718C42.2704 28.5718 42.7687 28.0731 42.7687 27.4497C42.7687 26.8263 42.2704 26.3276 41.6476 26.3276C41.0247 26.3276 40.5265 26.8263 40.5265 27.4497C40.5265 28.0731 41.0247 28.5718 41.6476 28.5718ZM41.3569 28.2185H41.1701V26.7017H41.7514C42.1043 26.7017 42.2289 26.8471 42.2289 27.1172C42.2497 27.3458 42.0628 27.5328 41.8552 27.5536L42.3119 28.2185H42.1043L41.6476 27.5536H41.3777L41.3569 28.2185ZM41.3569 27.3666H41.606C41.8137 27.3666 42.042 27.3458 42.042 27.0965C42.042 26.9095 41.8552 26.8471 41.7099 26.8471H41.3777V27.3666H41.3569Z" fill="#5F5F5F"/>
<path d="M38.5533 28.5922L20.0133 19.6571V0L38.5533 28.5922ZM40.0274 32L20.0133 23.5429V32H40.0274Z" fill="#5F5F5F"/>
<path d="M1.47388 28.5922L20.0139 0V19.6571L1.47388 28.5922Z" fill="#242424"/>
<path d="M-0.00012207 31.9996H20.0139V23.5425L-0.00012207 31.9996Z" fill="#242424"/>
<path d="M46.9186 24.5338H52.9117C59.0847 24.5338 62.7525 21.3339 62.7525 16.0283C62.7525 10.7227 59.0847 7.53662 52.9117 7.53662H46.9186V24.5338V24.5338ZM50.711 10.4872H52.9117C56.9117 10.4872 58.9186 12.4682 58.9186 16.0283C58.9186 19.5884 56.9117 21.5694 52.9117 21.5694H50.711V10.4872Z" fill="#242424"/>
<path d="M70.3278 17.1642H77.5389V14.2136H70.3278V10.4872H78.4801V7.53662H66.5216V24.5338H78.7431V21.5832H70.3278V17.1642Z" fill="#242424"/>
<path d="M93.9747 21.5832H86.6529V7.53662H82.8467V24.5338H93.9747V21.5832Z" fill="#242424"/>
<path d="M107.006 7.53662H91.7676V10.4872H97.47V24.5338H101.29V10.4872H107.006V7.53662Z" fill="#242424"/>
<path d="M122.667 24.5333H118.695L117.034 20.2805H110.127L108.466 24.5333H104.757L111.857 7.4668H115.691L122.667 24.5333ZM115.954 17.4269L113.588 11.3871L111.207 17.4269H115.954Z" fill="#242424"/>
</svg>
