<svg width="144" height="30" viewBox="0 0 144 30" fill="none" xmlns="http://www.w3.org/2000/svg">
<path d="M20.6095 12.0172C20.4966 12.0172 20.4016 12.0202 20.3482 12.0262C20.2858 12.1402 20.1937 12.2932 20.0571 12.5062C22.1835 12.5062 24.1139 12.6831 26.2492 13.0701L25.6463 13.658C23.7189 13.3131 22.1182 13.1751 20.0779 13.1751C19.781 13.1751 19.7186 13.1751 19.6473 13.1781C19.576 13.286 19.4156 13.496 19.2553 13.691C19.4364 13.679 19.7869 13.673 20.2709 13.673C21.9489 13.673 23.5169 13.799 25.2187 14.075L24.6158 14.6659C23.3209 14.4619 21.738 14.3449 20.3184 14.3449C19.8136 14.3449 19.2404 14.3629 18.7267 14.3929C18.6108 14.5279 18.3079 14.8579 18.2159 14.9598C18.8959 14.8879 19.6443 14.8548 20.5353 14.8548C21.8034 14.8548 23.0151 14.9389 24.1614 15.1098L23.5585 15.6947C22.7418 15.5928 21.7499 15.5328 20.8738 15.5328C18.6138 15.5328 16.8319 16.0277 14.9906 17.1645C16.7458 19.0663 19.6206 20.2691 22.4062 20.2691H22.6676L21.6935 21.2201C17.6753 20.4581 13.4463 18.6734 9.87368 16.2286C6.4376 13.886 5.23484 13.1931 2.55312 11.9963L2.53531 11.3003L4.34985 12.0862L4.96758 11.5913L10.8923 14.3329L10.5062 14.6449L7.46516 13.3101L7.16521 13.547L8.74518 14.4379C10.0786 15.1879 11.0943 15.5238 12.0328 15.5238C14.0849 15.5238 15.9262 14.054 17.1141 11.4713C18.008 11.3543 18.9613 11.3003 20.1076 11.3003C22.4597 11.3003 24.7434 11.5283 27.3302 12.0172L26.7006 12.6321C25.091 12.2932 22.3557 12.0172 20.6095 12.0172ZM14.851 29.0999C7.14341 29.0999 0.891136 22.7849 0.891136 15C0.891136 7.21501 7.14341 0.899935 14.851 0.899935C22.5587 0.899935 28.8109 7.21501 28.8109 15C28.8109 22.7849 22.5587 29.0999 14.851 29.0999ZM14.851 0C6.6385 0 0 6.70496 0 15C0 23.295 6.6385 30 14.851 30C23.0637 30 29.7021 23.295 29.7021 15C29.7021 6.70496 23.0637 0 14.851 0Z" fill="#242424"/>
<path d="M40.7137 19.6749H48.093V23.0581H36.7422V6.26202H40.7137V19.6749ZM57.0169 10.9649H60.7187V23.0581H57.2376V21.6664C56.7227 22.6022 55.6686 23.4179 53.7317 23.4179C50.5693 23.4179 48.9267 22.0262 48.9267 18.0432V10.9649H52.6286V17.8752C52.6286 19.4829 53.3396 20.2026 54.8351 20.2026C56.1834 20.2026 57.0169 19.4829 57.0169 17.8752V10.9649ZM63.5627 10.5091C63.5627 7.58187 65.4505 6.02211 68.4169 6.02211C69.3731 6.02211 69.9859 6.16609 69.9859 6.16609V9.09334C69.9859 9.09334 69.4711 9.04552 69.0297 9.04552C67.8775 9.04552 67.2645 9.42942 67.2645 10.4851V10.9649H69.9859V13.9163H67.2645V23.0581H63.5627V13.9163H61.6995V10.9649H63.5627V10.5091ZM76.5069 10.9649H79.3262V13.9163H76.5069V18.6191C76.5069 19.9148 77.1934 20.2507 78.272 20.2507C78.7133 20.2507 79.3262 20.1788 79.3262 20.1788V23.0821C79.3262 23.0821 78.4682 23.2739 77.5611 23.2739C74.5948 23.2739 72.8051 21.9543 72.8051 19.0271V13.9163H70.9418V10.9649H72.8051V7.43783H76.5069V10.9649ZM87.5223 10.605C90.6604 10.605 92.303 11.9966 92.303 15.9797V23.0581H88.601V16.1476C88.601 14.5401 87.89 13.8204 86.3456 13.8204C84.9481 13.8204 84.1146 14.5401 84.1146 16.1476V23.0581H80.4128V6.28608H84.1391V12.1406C84.7766 11.2528 85.7817 10.605 87.5223 10.605ZM101.742 18.3551C101.742 19.6749 100.467 20.6587 98.5055 20.6587C97.5492 20.6587 96.9854 20.2268 96.9854 19.4109C96.9854 18.7871 97.3777 18.2593 98.628 18.0914L100.761 17.8033C101.129 17.7553 101.521 17.6834 101.742 17.6114V18.3551ZM99.6823 10.6051C96.0294 10.6051 94.2642 11.9728 94.1171 14.5402H97.721C97.77 13.8683 98.1622 13.3644 99.6823 13.3644C101.031 13.3644 101.668 13.7964 101.668 14.4441C101.668 15.0201 101.3 15.236 100.393 15.3319L98.0398 15.5718C94.8525 15.9077 93.4061 17.2035 93.4061 19.555C93.4061 21.7384 94.779 23.4179 97.6964 23.4179C99.6823 23.4179 100.859 22.7941 101.889 21.5463V23.0581H105.272V15.116C105.272 11.7808 103.286 10.6051 99.6823 10.6051ZM113.832 10.605C117.044 10.605 118.686 11.9966 118.686 15.9797V23.0581H114.984V16.1476C114.984 14.5401 114.273 13.8204 112.729 13.8204C111.331 13.8204 110.498 14.5401 110.498 16.1476V23.0581H106.796V10.965H110.277V12.3567C110.792 11.4208 111.846 10.605 113.832 10.605ZM126.495 15.4758C129.633 15.8838 131.202 16.8436 131.202 19.363C131.202 21.9064 129.364 23.418 125.466 23.418C121.224 23.418 119.729 21.7625 119.655 19.3389H123.308C123.406 20.2268 124.044 20.6587 125.466 20.6587C126.912 20.6587 127.5 20.3227 127.5 19.6509C127.5 19.0271 127.01 18.7392 125.735 18.5712L124.436 18.4031C121.715 18.0433 120.146 17.0116 120.146 14.6121C120.146 12.3087 121.886 10.605 125.539 10.605C128.922 10.605 130.737 11.9247 130.908 14.5401H127.304C127.182 13.8444 126.789 13.4124 125.539 13.4124C124.313 13.4124 123.848 13.8204 123.848 14.3483C123.848 14.876 124.142 15.164 125.196 15.308L126.495 15.4758ZM140.469 18.3554C140.469 19.6749 139.194 20.6587 137.233 20.6587C136.277 20.6587 135.713 20.2268 135.713 19.4109C135.713 18.7871 136.105 18.2593 137.356 18.0914L139.489 17.8033C139.856 17.7555 140.249 17.6834 140.469 17.6114V18.3554ZM138.41 10.6051C134.757 10.6051 132.992 11.9728 132.845 14.5402H136.449C136.498 13.8683 136.89 13.3646 138.41 13.3646C139.758 13.3646 140.396 13.7964 140.396 14.4442C140.396 15.0201 140.028 15.236 139.121 15.3319L136.767 15.5718C133.58 15.9078 132.134 17.2035 132.134 19.555C132.134 21.7384 133.507 23.4179 136.424 23.4179C138.41 23.4179 139.587 22.7941 140.616 21.5463V23.0581H144V15.116C144 11.781 142.014 10.6051 138.41 10.6051Z" fill="#242424"/>
</svg>
